<?xml version="1.0" standalone="no"?>
<!DOCTYPE svg PUBLIC "-//W3C//DTD SVG 20010904//EN"
 "http://www.w3.org/TR/2001/REC-SVG-20010904/DTD/svg10.dtd">
<svg version="1.0" xmlns="http://www.w3.org/2000/svg"
 width="662.000000pt" height="662.000000pt" viewBox="0 0 662.000000 662.000000"
 preserveAspectRatio="xMidYMid meet">
<metadata>
Created by potrace 1.11, written by Peter Selinger 2001-2013
</metadata>
<g transform="translate(0.000000,662.000000) scale(0.100000,-0.100000)"
fill="#000000" stroke="none">
<path d="M4530 4437 c-3 -3 -23 -7 -45 -10 -90 -13 -199 -95 -317 -236 -70
-85 -88 -101 -113 -101 -167 -6 -302 -95 -340 -224 -20 -66 -10 -76 69 -73
l61 2 25 52 c29 60 54 89 93 110 34 17 46 10 25 -14 -51 -58 -140 -281 -156
-391 -14 -100 -6 -244 17 -315 55 -165 169 -239 361 -236 103 2 188 26 250 72
l45 33 20 -30 c33 -50 79 -68 158 -61 43 3 67 2 67 -5 0 -23 47 -80 83 -101
56 -31 197 -25 280 13 31 15 57 24 57 20 0 -4 -15 -43 -33 -86 -27 -67 -36
-80 -57 -82 -45 -5 -264 -34 -300 -40 -19 -3 -76 -16 -127 -29 -295 -77 -503
-267 -505 -463 -1 -111 80 -174 225 -175 107 0 164 8 265 40 219 68 447 272
567 506 42 81 40 79 130 92 166 22 330 84 440 165 57 42 140 130 186 197 87
125 177 395 140 417 -13 8 -78 8 -117 0 -22 -4 -32 -20 -40 -64 -13 -65 -67
-205 -105 -268 -85 -142 -183 -227 -331 -287 -91 -37 -208 -67 -208 -54 0 29
139 412 166 458 43 72 113 259 114 303 0 23 -34 37 -82 34 -31 -2 -65 2 -87
11 -55 23 -199 13 -278 -19 -85 -34 -163 -100 -213 -178 -23 -36 -68 -106
-100 -156 -69 -108 -116 -153 -137 -131 -20 20 -22 63 -6 126 8 31 16 63 18
71 1 8 13 70 25 137 28 150 26 155 -63 149 -62 -4 -73 -12 -83 -56 -64 -278
-207 -455 -367 -453 -85 0 -142 38 -186 125 -31 62 -34 75 -35 160 0 51 3 113
6 138 19 126 80 275 165 403 l39 58 179 3 c192 4 238 12 321 61 60 35 121 109
138 166 28 93 -6 166 -94 202 -32 13 -199 24 -210 14z m121 -114 c79 -47 -4
-178 -138 -219 -49 -15 -220 -17 -229 -2 -2 4 35 48 83 97 123 126 214 165
284 124z m679 -812 c19 -10 35 -22 35 -27 0 -5 -22 -65 -50 -134 -48 -122 -51
-127 -135 -211 -83 -83 -150 -131 -202 -144 -36 -9 -68 27 -68 75 0 68 154
330 229 389 42 33 116 70 141 71 8 0 31 -8 50 -19z m-280 -846 c0 -13 -41 -84
-83 -143 -113 -162 -255 -267 -446 -331 -151 -51 -235 -9 -202 101 21 69 70
135 148 196 75 59 244 128 363 148 14 3 31 7 38 9 7 2 40 7 75 11 34 3 64 8
66 10 7 6 41 5 41 -1z"/>
<path d="M2723 4268 c-15 -17 -12 -78 13 -235 5 -31 4 -31 -45 -38 -66 -9
-134 -54 -171 -112 -46 -72 -36 -125 22 -123 13 0 38 0 55 0 29 0 35 5 54 45
22 47 74 98 92 92 11 -3 12 -10 22 -87 4 -25 9 -53 11 -62 8 -27 7 -337 -1
-393 -10 -72 -13 -83 -30 -134 -29 -89 -112 -160 -170 -145 -14 3 -25 8 -25
10 0 1 7 29 15 61 57 217 29 450 -59 504 -39 24 -130 25 -184 4 -88 -35 -123
-150 -97 -310 14 -89 58 -198 101 -252 19 -23 34 -46 34 -52 0 -21 -72 -91
-94 -91 -25 0 -76 50 -99 95 -21 43 -36 117 -43 210 -8 122 -21 193 -36 212
-13 16 -112 15 -134 -2 -16 -11 -17 -20 -7 -81 15 -97 14 -273 -2 -333 -7 -28
-12 -51 -10 -51 7 0 -44 -141 -70 -192 -36 -71 -38 -86 -12 -102 22 -14 106
-14 127 -1 12 8 80 142 80 159 1 35 17 36 76 5 55 -29 64 -31 135 -26 89 5
140 28 191 85 l36 40 98 4 c104 4 139 16 199 66 44 36 92 107 110 163 l16 48
37 -23 c46 -29 91 -39 162 -37 109 3 173 41 206 120 19 45 29 190 15 211 -12
17 -115 17 -136 0 -7 -6 -15 -41 -17 -78 -5 -71 -29 -137 -54 -146 -15 -6 -68
17 -90 38 -31 32 -65 123 -79 211 -3 22 -10 69 -15 105 -6 36 -13 99 -16 140
-3 41 -7 80 -9 86 -2 6 14 16 35 23 51 15 96 63 120 128 35 95 23 114 -69 109
-57 -3 -64 -9 -83 -68 -6 -21 -14 -35 -18 -33 -4 3 -11 31 -15 62 -14 118 -31
182 -48 185 -56 7 -110 1 -124 -14z m-297 -895 c4 -131 3 -136 -12 -104 -21
46 -39 187 -30 235 7 35 9 37 23 23 12 -12 16 -46 19 -154z"/>
<path d="M1491 3992 c-5 -9 -7 -36 -4 -58 l5 -41 -53 17 c-70 24 -202 18 -270
-12 -108 -46 -205 -199 -201 -317 4 -94 -77 -266 -177 -381 -53 -61 -34 -94
52 -91 43 1 57 7 85 34 33 31 104 134 132 189 7 16 15 27 16 25 11 -11 132
-508 136 -562 l3 -40 -47 -7 c-110 -15 -184 -125 -144 -210 24 -51 66 -71 143
-69 97 2 150 37 190 126 9 22 21 43 26 46 4 3 33 7 64 8 144 6 281 99 363 247
23 43 31 63 47 124 11 43 14 202 4 255 -25 135 -103 323 -182 440 -29 43 -33
56 -28 89 10 59 1 156 -16 182 -13 20 -23 23 -75 23 -46 -1 -62 -5 -69 -17z
m-127 -182 c23 -11 56 -34 74 -51 l32 -30 -21 -32 c-60 -88 -149 -147 -226
-150 l-37 -2 -19 66 -19 67 33 52 c32 49 97 100 128 100 8 0 33 -9 55 -20z
m242 -282 c70 -140 96 -234 100 -361 3 -106 -13 -170 -60 -251 -53 -91 -157
-166 -229 -166 l-34 0 -7 62 c-3 33 -18 107 -32 162 -14 56 -27 106 -28 111
-2 6 -8 30 -15 55 -7 25 -15 53 -16 62 -5 24 -54 204 -61 221 -3 10 15 17 66
26 86 16 192 67 239 115 19 20 36 36 38 36 1 0 19 -32 39 -72z m-410 -915 c-8
-15 -15 -22 -16 -15 0 17 20 55 27 49 2 -3 -2 -18 -11 -34z"/>
<path d="M1890 3938 c-16 -9 -36 -30 -46 -47 -10 -16 -28 -32 -41 -36 -35 -8
-63 -41 -63 -73 0 -58 97 -112 190 -106 48 3 59 7 82 35 41 49 55 177 23 225
-13 20 -22 23 -66 21 -29 -1 -64 -10 -79 -19z"/>
<path d="M4787 3924 c-2 -2 -41 -4 -87 -5 -102 -3 -132 -22 -134 -85 -2 -84
60 -128 165 -119 74 7 110 24 143 68 32 42 34 89 4 117 -12 11 -27 21 -32 21
-41 5 -56 6 -59 3z"/>
</g>
</svg>
